# xmcd
#
# Track frame offsets:
#	150
#	18180
#	29557
#	44760
#	55822
#	66842
#	81225
#	90330
#	109535
#	121197
#	142202
#	162520
#	175517
#	195042
#	211090
#
# Disc length: 3084
#
# Revision: 2
# Processed by: cddbd v1.5.1PL0 Copyright (c) Steve Scherf et al.
# Submitted via: audiograbber 1.80
# Normalized: r1:TDELIM( - )
#
DISCID=c10c0a0f
DTITLE=Various Artist - Women and Song Beginnings Disk 1
DYEAR=1900
DGENRE=
TTITLE0=Billie Holiday - God Bless The Child
TTITLE1=Dinah Washington - What A Diff'rence A Day Makes
TTITLE2=Peggy Lee - Fever
TTITLE3=Dusty Springfield - Son Of A Preacher Man
TTITLE4=Aretha Franklin - Respect
TTITLE5=Petula Clark - Downtown
TTITLE6=Patsy Cline - Walkin' After Midnight
TTITLE7=Bobbie Gentry - Ode To Billy Joe
TTITLE8=Jackie DeShannon - Put A Little Love In Your Heart
TTITLE9=Gladys Knight and The Pips - Midnight Train To Georgia
TTITLE10=Ella Fitzgerald - Let's Call The Whole Thing Off
TTITLE11=Mary Wells - My Guy
TTITLE12=Carly Simon - You're So Vain
TTITLE13=Bette Midler - The Rose
TTITLE14=Janis Joplin - Me and Bobby McGee
EXTD=
EXTT0=
EXTT1=
EXTT2=
EXTT3=
EXTT4=
EXTT5=
EXTT6=
EXTT7=
EXTT8=
EXTT9=
EXTT10=
EXTT11=
EXTT12=
EXTT13=
EXTT14=
PLAYORDER=
